<?xml version="1.0" encoding="utf-8"?>
<!-- Generator: Adobe Illustrator 19.1.0, SVG Export Plug-In . SVG Version: 6.00 Build 0)  -->
<!DOCTYPE svg PUBLIC "-//W3C//DTD SVG 1.1//EN" "http://www.w3.org/Graphics/SVG/1.1/DTD/svg11.dtd">
<svg version="1.1" id="Layer_1" xmlns="http://www.w3.org/2000/svg" xmlns:xlink="http://www.w3.org/1999/xlink" x="0px" y="0px"
	 viewBox="0 0 48 48" style="enable-background:new 0 0 48 48;" xml:space="preserve">
<style type="text/css">
	.st0{fill:#FF9100;}
</style>
<g>
	<path class="st0" d="M5.7,15.8v6.9h7.9v-6.9h2.1v16.4h-2.1v-7.7H5.7v7.7H3.6V15.8H5.7z"/>
	<path class="st0" d="M18.7,32.2v-1.3l1.7-1.6c4-3.8,5.9-5.9,5.9-8.3c0-1.6-0.8-3.1-3.1-3.1c-1.4,0-2.6,0.7-3.4,1.3l-0.7-1.5
		c1.1-0.9,2.7-1.6,4.5-1.6c3.4,0,4.8,2.3,4.8,4.6c0,2.9-2.1,5.3-5.5,8.5l-1.3,1.2v0h7.1v1.8H18.7z"/>
	<path class="st0" d="M34.6,27l-1.7,5.2h-2.2l5.6-16.4h2.6l5.6,16.4h-2.3L40.4,27H34.6z M40,25.4l-1.6-4.7c-0.4-1.1-0.6-2-0.9-3h0
		c-0.2,1-0.5,2-0.8,3L35,25.4H40z"/>
</g>
</svg>
